<svg xmlns="http://www.w3.org/2000/svg" version="1.1" xmlns:xlink="http://www.w3.org/1999/xlink" xmlns:svgjs="http://svgjs.dev/svgjs" width="263.668" height="461.73999"><svg id="SvgjsSvg1034" data-name="Layer 1" viewBox="0 0 263.668 461.74" version="1.1" sodipodi:docname="OC_LOGO_ONLY.svg" width="263.668" height="461.73999" inkscape:version="1.1.2 (0a00cf5339, 2022-02-04)" xmlns:inkscape="http://www.inkscape.org/namespaces/inkscape" xmlns:sodipodi="http://sodipodi.sourceforge.net/DTD/sodipodi-0.dtd" xmlns="http://www.w3.org/2000/svg" xmlns:svg="http://www.w3.org/2000/svg">
  <sodipodi:namedview id="SvgjsSodipodi:namedview1033" pagecolor="#ffffff" bordercolor="#666666" borderopacity="1.0" inkscape:pageshadow="2" inkscape:pageopacity="0.0" inkscape:pagecheckerboard="0" showgrid="false" inkscape:zoom="1.2555556" inkscape:cx="430.88496" inkscape:cy="281.15044" inkscape:window-width="1920" inkscape:window-height="1043" inkscape:window-x="1920" inkscape:window-y="0" inkscape:window-maximized="1" inkscape:current-layer="Layer_1"></sodipodi:namedview>
  <defs id="SvgjsDefs1032">
    <style id="SvgjsStyle1031">.cls-1{fill:#08c2ff;}.cls-2{fill:#006bff;}</style>
  </defs>
  <path class="cls-1" d="m 122.70801,158.6 c -7,4.87 -14.46,10.06 -18.68,13.11 l -0.17,0.12 -0.16,0.14 c -2.68,2.09 -5.179998,4 -7.509998,5.79 l -2.69,-2 c -6,-5 -11.87,-10.22 -17.48,-15.67 -4.41,-4.22 -8.7,-8.53 -12.93,-13 -4.23,-4.47 -8.2,-9.06 -12.15,-13.73 -15.68,-18.65 -29.48,-39.36 -39,-62.03 A 159.07,159.07 0 0 1 1.6580121,36.09 114.19,114.19 0 0 1 1.2280121,0 c 3.7,23.57 12.9999999,44.74 25.3199999,63.72 12.32,18.98 27.33,36.07 43.64,51.78 A 455.09,455.09 0 0 0 117.52801,155 l 5.18,3.56 z" id="SvgjsPath1030"></path>
  <polygon class="cls-1" points="158.85,184.21 131.85,204.38 131.83,204.37 " id="SvgjsPolygon1029" transform="translate(-0.00198791)"></polygon>
  <path class="cls-1" d="m 263.56801,353.9 c -0.11,3.24 -0.44,6.23 -0.7,9.33 a 202.71,202.71 0 0 1 -7,36.32 165.87,165.87 0 0 1 -14.37,33.78 124.73,124.73 0 0 1 -22.17,28.41 172.15,172.15 0 0 0 13.6,-32.15 189.59,189.59 0 0 0 6.8,-33.4 225.93,225.93 0 0 0 1.17,-33.68 c -0.16,-2.79 -0.28,-5.67 -0.51,-8.33 -0.23,-2.66 -0.5,-5.25 -0.9,-7.84 a 120.67,120.67 0 0 0 -3.55,-15.44 c -6.12,-20.3 -17.34,-39.22 -30.84,-56.6 a 296.15,296.15 0 0 0 -21.93,-25.08 c -7.77,-8 -15.93,-15.79 -24.46,-23.15 -5.95,-5.21 -12,-10.29 -18.26,-15.14 l 27,-20.18 c 5.52,4.19 9.81,7.42 13.1,10.3 9.16,8.13 18,16.59 26.43,25.65 a 285.11,285.11 0 0 1 23.44,28.92 208.71,208.71 0 0 1 19,32.65 162.16,162.16 0 0 1 7.12,17.82 156.8,156.8 0 0 1 4.86,18.72 119.79,119.79 0 0 1 2.18,19.35 c 0.12,3.23 0.12,6.51 0,9.74 z" id="SvgjsPath1028"></path>
  <path class="cls-1" d="m 22.618012,371.57 c 0,-3 0.05,-6 0.18,-9.07 -0.11,3.03 -0.18,6.05 -0.18,9.07 z" id="SvgjsPath1027"></path>
  <path class="cls-1" d="m 110.09801,180.12 2,-1.41 -2,1.43 -1.88,1.47 z" id="SvgjsPath1026"></path>
  <path class="cls-1" d="M 146.14801,155 Z" id="SvgjsPath1025"></path>
  <path class="cls-1" d="m 212.72801,133.4 c 2,-2.34 3.89,-4.7 5.78,-7.09 -1.89,2.39 -3.81,4.77 -5.77,7.09 -1,1.17 -2,2.33 -3,3.48 1.01,-1.15 1.99,-2.31 2.99,-3.48 z" id="SvgjsPath1024"></path>
  <path class="cls-2" d="m 263.63801,18.83 a 0,0 0 0 0 0,0.05 c -0.05,1.62 -0.12,3.27 -0.21,4.89 v 0 c -0.1,1.62 -0.24,3.27 -0.42,4.91 -0.26,2.46 -0.59,4.93 -1,7.37 -0.25,1.51 -0.51,3 -0.81,4.51 -0.3,1.51 -0.63,3 -1,4.48 -1,4.51 -2.2,8.96 -3.67,13.32 -1.47,4.36 -3,8.71 -4.81,13 -8.32,19.88 -19.92,38.18 -33.21,55 -1.89,2.39 -3.83,4.75 -5.78,7.09 -1,1.17 -2,2.33 -3,3.48 q -4.5,5.22 -9.17,10.24 c -1.05,1.12 -2.12,2.21 -3.18,3.31 -1.06,1.1 -2.14,2.18 -3.22,3.27 q -3.23,3.23 -6.54,6.39 c -5.59,5.46 -11.45,10.63 -17.46,15.66 l -11.33,8.46 -27,20.16 -4.46,3.34 c -7.65,5.83 -15.12,12 -22.39,18.37 -8.529998,7.36 -16.689998,15.1 -24.449998,23.14 a 294.5,294.5 0 0 0 -21.94,25.03 c -13.49,17.38 -24.71,36.29 -30.83,56.6 -1,3.3 -1.84,6.64 -2.55,10 -0.35,1.69 -0.68,3.41 -0.95,5.12 l -0.05,0.31 a 1.24,1.24 0 0 0 0,0.27 c -0.41,2.51 -0.69,5.07 -0.88,7.58 -0.19,2.51 -0.35,5.54 -0.5,8.32 -0.13,3 -0.18,6.05 -0.18,9.07 a 218.15,218.15 0 0 0 1.35,24.62 185.26,185.26 0 0 0 5.61,29.26 c 0.36,1.38 0.77,2.76 1.17,4.14 0.86,2.74 1.76,5.47 2.76,8.18 a 171.49,171.49 0 0 0 6.8,16.1 c 1,2.18 2.17,4.37 3.32,6.52 0.25,0.43 0.49,0.89 0.72,1.33 -1.07,-1 -2.12,-2.07 -3.17,-3.12 -1.05,-1.05 -2.06,-2.16 -3.06,-3.26 -1,-1.1 -2,-2.24 -3,-3.4 -1,-1.16 -1.9,-2.32 -2.83,-3.51 -0.93,-1.19 -1.83,-2.39 -2.73,-3.62 a 135.09,135.09 0 0 1 -7.39,-11.48 c -1.52,-2.66 -2.94,-5.35 -4.3,-8.09 -1.36,-2.74 -2.62,-5.53 -3.81,-8.36 -1.19,-2.83 -2.32,-5.68 -3.36,-8.58 -1.0399999,-2.9 -1.9999999,-5.8 -2.8999999,-8.76 q -2.07,-7 -3.56,-14.21 c -0.88,-4 -1.61,-8.09 -2.2,-12.16 -0.51,-3.31 -0.93,-6.61 -1.26000001,-9.93 -0.27,-3.11 -0.6,-6.1 -0.7,-9.34 -0.1,-3.24 -0.14,-6.5 0,-9.75 a 121.06,121.06 0 0 1 2.16000001,-19.35 156.49,156.49 0 0 1 4.86,-18.7 v 0 c 0.51,-1.52 1,-3 1.59,-4.54 l 0.84,-2.26 c 0.5799999,-1.49 1.1899999,-3 1.7999999,-4.44 0.53,-1.26 1.05,-2.48 1.61,-3.72 0.42,-0.95 0.86,-1.91 1.3,-2.85 a 207.37,207.37 0 0 1 19,-32.65 286.87,286.87 0 0 1 23.44,-28.91 c 8.37,-9.06 17.27,-17.54 26.43,-25.66 4.86,-4.25 11.86,-9.27 21.699998,-16.86 1.1,-0.83 2.22,-1.71 3.38,-2.6 l 1.88,-1.47 2,-1.43 c 0.72,-0.49 1.5,-1.05 2.34,-1.64 0.84,-0.59 1.66,-1.18 2.54,-1.81 4.52,-3.16 9.94,-6.93 14.89,-10.36 1,-0.66 1.92,-1.33 2.85,-2 0.4,-0.3 0.82,-0.57 1.22,-0.85 l 0.14,-0.09 0.89,-0.61 c 4,-2.8 7.24,-5 8.55,-5.89 0.14,-0.11 0.26,-0.18 0.35,-0.25 l 0.3,-0.19 v 0 a 458,458 0 0 0 47.32,-39.54 c 16.31,-15.71 31.34,-32.77 43.65,-51.79 0.77,-1.19 1.52,-2.38 2.27,-3.58 q 3.36,-5.4 6.34,-11.05 a 165.75,165.75 0 0 0 10.32,-23.56 q 1.41,-4.1 2.6,-8.29 1.19,-4.19 2.13,-8.49 c 0.62,-2.86 1.2,-5.72 1.64,-8.72 0.22,1.49 0.42,3 0.59,4.49 0.11,1.1 0.21,2.22 0.3,3.32 0,0.21 0,0.41 0.05,0.62 0.25,3.44 0.33,6.92 0.26,10.4 z" id="SvgjsPath1023"></path>
  <path class="cls-2" d="m 24.178012,346.6 c -0.39,2.51 -0.69,5 -0.88,7.58 0.19,-2.51 0.47,-5.07 0.88,-7.58 z" id="SvgjsPath1022"></path>
  <path class="cls-2" d="m 25.208012,340.9 c -0.35,1.69 -0.67,3.41 -0.95,5.12 0.27,-1.71 0.6,-3.43 0.95,-5.12 z" id="SvgjsPath1021"></path>
  <polygon class="cls-2" points="127.37,207.71 131.83,204.37 158.85,184.21 131.85,204.38 " id="SvgjsPolygon1020" transform="translate(-0.00198791)"></polygon>
</svg><style>@media (prefers-color-scheme: light) { :root { filter: none; } }
@media (prefers-color-scheme: dark) { :root { filter: none; } }
</style></svg>