<svg id="Layer_1" data-name="Layer 1" xmlns="http://www.w3.org/2000/svg" viewBox="0 0 1080 461.74"><defs><style>.cls-1{fill:#fff;}</style></defs><path class="cls-1" d="M122.71,158.6c-7,4.87-14.46,10.06-18.68,13.11l-.17.12-.16.14c-2.68,2.09-5.18,4-7.51,5.79l-2.69-2c-6-5-11.87-10.22-17.48-15.67-4.41-4.22-8.7-8.53-12.93-13s-8.2-9.06-12.15-13.73C35.26,114.71,21.46,94,11.94,71.33A159.07,159.07,0,0,1,1.66,36.09,114.19,114.19,0,0,1,1.23,0c3.7,23.57,13,44.74,25.32,63.72S53.88,99.79,70.19,115.5A455.09,455.09,0,0,0,117.53,155l5.18,3.56Z"/><polygon class="cls-1" points="158.85 184.21 131.85 204.38 131.83 204.37 158.85 184.21"/><path class="cls-1" d="M263.57,353.9c-.11,3.24-.44,6.23-.7,9.33a202.71,202.71,0,0,1-7,36.32,165.87,165.87,0,0,1-14.37,33.78,124.73,124.73,0,0,1-22.17,28.41,172.15,172.15,0,0,0,13.6-32.15,189.59,189.59,0,0,0,6.8-33.4,225.93,225.93,0,0,0,1.17-33.68c-.16-2.79-.28-5.67-.51-8.33s-.5-5.25-.9-7.84a120.67,120.67,0,0,0-3.55-15.44c-6.12-20.3-17.34-39.22-30.84-56.6a296.15,296.15,0,0,0-21.93-25.08c-7.77-8-15.93-15.79-24.46-23.15-5.95-5.21-12-10.29-18.26-15.14l27-20.18c5.52,4.19,9.81,7.42,13.1,10.3,9.16,8.13,18,16.59,26.43,25.65a285.11,285.11,0,0,1,23.44,28.92,208.71,208.71,0,0,1,19,32.65,162.16,162.16,0,0,1,7.12,17.82,156.8,156.8,0,0,1,4.86,18.72,119.79,119.79,0,0,1,2.18,19.35c.12,3.23.12,6.51,0,9.74Z"/><path class="cls-1" d="M22.62,371.57c0-3,.05-6,.18-9.07C22.69,365.53,22.62,368.55,22.62,371.57Z"/><path class="cls-1" d="M110.1,180.12l2-1.41-2,1.43-1.88,1.47Z"/><path class="cls-1" d="M146.15,155h0v0Z"/><path class="cls-1" d="M212.73,133.4c2-2.34,3.89-4.7,5.78-7.09-1.89,2.39-3.81,4.77-5.77,7.09-1,1.17-2,2.33-3,3.48C210.75,135.73,211.73,134.57,212.73,133.4Z"/><path class="cls-1" d="M263.64,18.83a0,0,0,0,0,0,.05c-.05,1.62-.12,3.27-.21,4.89v0c-.1,1.62-.24,3.27-.42,4.91-.26,2.46-.59,4.93-1,7.37-.25,1.51-.51,3-.81,4.51s-.63,3-1,4.48C259.2,49.55,258,54,256.53,58.36s-3,8.71-4.81,13c-8.32,19.88-19.92,38.18-33.21,55-1.89,2.39-3.83,4.75-5.78,7.09-1,1.17-2,2.33-3,3.48q-4.5,5.22-9.17,10.24c-1.05,1.12-2.12,2.21-3.18,3.31s-2.14,2.18-3.22,3.27q-3.23,3.23-6.54,6.39c-5.59,5.46-11.45,10.63-17.46,15.66l-11.33,8.46-27,20.16-4.46,3.34c-7.65,5.83-15.12,12-22.39,18.37-8.53,7.36-16.69,15.1-24.45,23.14A294.5,294.5,0,0,0,58.59,274.3c-13.49,17.38-24.71,36.29-30.83,56.6-1,3.3-1.84,6.64-2.55,10-.35,1.69-.68,3.41-.95,5.12l-.05.31a1.24,1.24,0,0,0,0,.27c-.41,2.51-.69,5.07-.88,7.58s-.35,5.54-.5,8.32c-.13,3-.18,6.05-.18,9.07A218.15,218.15,0,0,0,24,396.19a185.26,185.26,0,0,0,5.61,29.26c.36,1.38.77,2.76,1.17,4.14.86,2.74,1.76,5.47,2.76,8.18a171.49,171.49,0,0,0,6.8,16.1c1,2.18,2.17,4.37,3.32,6.52.25.43.49.89.72,1.33-1.07-1-2.12-2.07-3.17-3.12s-2.06-2.16-3.06-3.26-2-2.24-3-3.4-1.9-2.32-2.83-3.51-1.83-2.39-2.73-3.62a135.09,135.09,0,0,1-7.39-11.48c-1.52-2.66-2.94-5.35-4.3-8.09s-2.62-5.53-3.81-8.36-2.32-5.68-3.36-8.58-2-5.8-2.9-8.76q-2.07-7-3.56-14.21c-.88-4-1.61-8.09-2.2-12.16-.51-3.31-.93-6.61-1.26-9.93-.27-3.11-.6-6.1-.7-9.34s-.14-6.5,0-9.75A121.06,121.06,0,0,1,2.27,324.8a156.49,156.49,0,0,1,4.86-18.7v0c.51-1.52,1-3,1.59-4.54l.84-2.26c.58-1.49,1.19-3,1.8-4.44.53-1.26,1.05-2.48,1.61-3.72.42-.95.86-1.91,1.3-2.85a207.37,207.37,0,0,1,19-32.65,286.87,286.87,0,0,1,23.44-28.91c8.37-9.06,17.27-17.54,26.43-25.66C88,196.82,95,191.8,104.84,184.21c1.1-.83,2.22-1.71,3.38-2.6l1.88-1.47,2-1.43c.72-.49,1.5-1.05,2.34-1.64s1.66-1.18,2.54-1.81c4.52-3.16,9.94-6.93,14.89-10.36,1-.66,1.92-1.33,2.85-2,.4-.3.82-.57,1.22-.85l.14-.09.89-.61c4-2.8,7.24-5,8.55-5.89.14-.11.26-.18.35-.25l.3-.19v0a458,458,0,0,0,47.32-39.54c16.31-15.71,31.34-32.77,43.65-51.79.77-1.19,1.52-2.38,2.27-3.58q3.36-5.4,6.34-11.05a165.75,165.75,0,0,0,10.32-23.56q1.41-4.1,2.6-8.29t2.13-8.49C261.42,5.86,262,3,262.44,0c.22,1.49.42,3,.59,4.49.11,1.1.21,2.22.3,3.32,0,.21,0,.41.05.62C263.63,11.87,263.71,15.35,263.64,18.83Z"/><path class="cls-1" d="M24.18,346.6c-.39,2.51-.69,5-.88,7.58C23.49,351.67,23.77,349.11,24.18,346.6Z"/><path class="cls-1" d="M25.21,340.9c-.35,1.69-.67,3.41-.95,5.12C24.53,344.31,24.86,342.59,25.21,340.9Z"/><polygon class="cls-1" points="131.83 204.37 158.85 184.21 131.85 204.38 127.37 207.71 131.83 204.37"/><path class="cls-1" d="M410.06,173.85a30.24,30.24,0,0,1-11.16-2,26.76,26.76,0,0,1-8.9-5.68,26.17,26.17,0,0,1-5.87-8.53,28.18,28.18,0,0,1,0-21.35,26.17,26.17,0,0,1,5.87-8.53,26.78,26.78,0,0,1,8.86-5.68,32,32,0,0,1,22.29,0,26.84,26.84,0,0,1,8.87,5.63,25.65,25.65,0,0,1,5.86,8.53,28.95,28.95,0,0,1,0,21.5,25.59,25.59,0,0,1-5.86,8.54,26.84,26.84,0,0,1-8.87,5.63A30,30,0,0,1,410.06,173.85Zm0-6.69a21.49,21.49,0,0,0,8.09-1.51,19.17,19.17,0,0,0,6.46-4.25,19.69,19.69,0,0,0,4.28-6.42,21.65,21.65,0,0,0,0-16.09,19.69,19.69,0,0,0-4.28-6.42,19.17,19.17,0,0,0-6.46-4.25,22.73,22.73,0,0,0-16.24,0,19.54,19.54,0,0,0-6.5,4.25,19.33,19.33,0,0,0-4.32,6.42,21.78,21.78,0,0,0,0,16.09,19.33,19.33,0,0,0,4.32,6.42,19.54,19.54,0,0,0,6.5,4.25A21.57,21.57,0,0,0,410.06,167.16Z"/><path class="cls-1" d="M449.15,187.82V133.41h6.91v10.74l-.45,9.25.76,9.25v25.17Zm21.12-14.13a18.14,18.14,0,0,1-9-2.29,16.58,16.58,0,0,1-6.54-6.8,23.48,23.48,0,0,1-2.45-11.28,24.08,24.08,0,0,1,2.37-11.27,15.93,15.93,0,0,1,6.47-6.77,18.79,18.79,0,0,1,9.2-2.25,20.58,20.58,0,0,1,10.37,2.56,18.89,18.89,0,0,1,7.15,7.1,20.9,20.9,0,0,1,2.63,10.63A21.14,21.14,0,0,1,487.79,164a18.79,18.79,0,0,1-7.15,7.14A20.68,20.68,0,0,1,470.27,173.69Zm-.6-6.31a13.71,13.71,0,0,0,6.88-1.73,12.45,12.45,0,0,0,4.81-4.92,15,15,0,0,0,1.76-7.41,14.76,14.76,0,0,0-1.76-7.4,12.59,12.59,0,0,0-4.81-4.85,13.71,13.71,0,0,0-6.88-1.73,13.54,13.54,0,0,0-6.8,1.73,12.59,12.59,0,0,0-4.81,4.85,14.76,14.76,0,0,0-1.77,7.4,15,15,0,0,0,1.77,7.41,12.45,12.45,0,0,0,4.81,4.92A13.54,13.54,0,0,0,469.67,167.38Z"/><path class="cls-1" d="M518.9,173.69a23.09,23.09,0,0,1-11.23-2.63,18.93,18.93,0,0,1-7.52-7.21,20.56,20.56,0,0,1-2.67-10.53,20.91,20.91,0,0,1,2.6-10.52,18.59,18.59,0,0,1,7.14-7.18A20.31,20.31,0,0,1,517.47,133a20.08,20.08,0,0,1,10.23,2.56,18.1,18.1,0,0,1,6.95,7.17,22.22,22.22,0,0,1,2.52,10.79c0,.3,0,.65,0,1s-.06.78-.11,1.13h-33.9v-5.18h30.14l-2.93,1.8a13.4,13.4,0,0,0-1.58-6.84,12,12,0,0,0-4.55-4.7,14.15,14.15,0,0,0-13.41,0,11.87,11.87,0,0,0-4.59,4.73,14.37,14.37,0,0,0-1.65,7v1.2a13.69,13.69,0,0,0,1.84,7.1,12.56,12.56,0,0,0,5.15,4.85,16.15,16.15,0,0,0,7.59,1.73,16.66,16.66,0,0,0,6.43-1.2,14.23,14.23,0,0,0,5.07-3.61l4,4.66a17.35,17.35,0,0,1-6.73,4.81A23.4,23.4,0,0,1,518.9,173.69Z"/><path class="cls-1" d="M569.19,133a18.84,18.84,0,0,1,8.6,1.88,13.55,13.55,0,0,1,5.83,5.71,20,20,0,0,1,2.11,9.7v22.92h-7.22v-22.1c0-3.86-.94-6.76-2.82-8.72s-4.52-2.93-7.93-2.93a14.2,14.2,0,0,0-6.69,1.51,10.34,10.34,0,0,0-4.4,4.43,15.64,15.64,0,0,0-1.54,7.29v20.52h-7.21V133.41h6.91v10.74l-1.13-2.85a13.83,13.83,0,0,1,6-6.09A19.73,19.73,0,0,1,569.19,133Z"/><path class="cls-1" d="M419.22,256.53A33.33,33.33,0,0,1,430.85,249a40.42,40.42,0,0,1,14.75-2.62,36.79,36.79,0,0,1,15.73,3.36,40,40,0,0,1,13.11,10.07l17-15.73a52.59,52.59,0,0,0-20.24-15.15,72.83,72.83,0,0,0-51.69-.82,59,59,0,0,0-19.75,12.37,56.82,56.82,0,0,0-13.11,18.84,62.9,62.9,0,0,0,0,47.52A57.3,57.3,0,0,0,419.46,338a68.77,68.77,0,0,0,24.66,4.34,67.21,67.21,0,0,0,27.12-5.24,53.21,53.21,0,0,0,20.24-15.24l-17-15.73a39.14,39.14,0,0,1-13.11,10.24,36.79,36.79,0,0,1-15.73,3.36,40.22,40.22,0,0,1-14.75-2.62,33.19,33.19,0,0,1-11.63-7.54A34.25,34.25,0,0,1,411.6,298a42.52,42.52,0,0,1,0-29.82A34.25,34.25,0,0,1,419.22,256.53Z"/><path class="cls-1" d="M587.16,303.55a38.59,38.59,0,0,0,17.2-14.17q6.06-9.25,6.06-22,0-12.94-6.06-22.28a38.86,38.86,0,0,0-17.2-14.34q-11.14-5-26.55-5H511v114.7h26.54v-32h23.1l1.24,0,22,32h28.68l-25.63-36.78Zm-9.67-51q6.06,5.25,6.06,14.75,0,9.35-6.06,14.66t-18.35,5.33H537.51v-40h21.63Q571.43,247.35,577.49,252.59Z"/><path class="cls-1" d="M669.08,225.72,618,340.42h27.2l10.22-24.58h53.16l10.18,24.58h27.86L695.3,225.72Zm-5.32,70L682,251.79l18.18,43.9Z"/><polygon class="cls-1" points="837.84 225.72 802.43 307.64 767.55 225.72 738.88 225.72 788.36 340.42 814.57 340.42 864.22 225.72 837.84 225.72"/><path class="cls-1" d="M907.64,225.72l-51.12,114.7h27.19l10.22-24.58H947.1l10.18,24.58h27.86l-51.29-114.7Zm-5.33,70,18.26-43.9,18.18,43.9Z"/><polygon class="cls-1" points="980.06 225.72 980.06 247.35 1016.76 247.35 1016.76 340.42 1043.3 340.42 1043.3 247.35 1080 247.35 1080 225.72 980.06 225.72"/></svg>