<?xml version="1.0" encoding="UTF-8" standalone="no"?>
<svg
   xmlns:dc="http://purl.org/dc/elements/1.1/"
   xmlns:cc="http://creativecommons.org/ns#"
   xmlns:rdf="http://www.w3.org/1999/02/22-rdf-syntax-ns#"
   xmlns:svg="http://www.w3.org/2000/svg"
   xmlns="http://www.w3.org/2000/svg"
   xmlns:sodipodi="http://sodipodi.sourceforge.net/DTD/sodipodi-0.dtd"
   xmlns:inkscape="http://www.inkscape.org/namespaces/inkscape"
   version="1.1"
   id="Layer_1"
   x="0px"
   y="0px"
   viewBox="0 0 78.667 78.67"
   style="enable-background:new 0 0 78.667 78.67;"
   xml:space="preserve"
   sodipodi:docname="close2.svg"
   inkscape:version="1.0.1 (3bc2e813f5, 2020-09-07)"><metadata
   id="metadata13"><rdf:RDF><cc:Work
       rdf:about=""><dc:format>image/svg+xml</dc:format><dc:type
         rdf:resource="http://purl.org/dc/dcmitype/StillImage" /><dc:title></dc:title></cc:Work></rdf:RDF></metadata><defs
   id="defs11" /><sodipodi:namedview
   pagecolor="#ffffff"
   bordercolor="#666666"
   borderopacity="1"
   objecttolerance="10"
   gridtolerance="10"
   guidetolerance="10"
   inkscape:pageopacity="0"
   inkscape:pageshadow="2"
   inkscape:window-width="1860"
   inkscape:window-height="1016"
   id="namedview9"
   showgrid="false"
   inkscape:zoom="10.957163"
   inkscape:cx="39.3335"
   inkscape:cy="39.334999"
   inkscape:window-x="1980"
   inkscape:window-y="27"
   inkscape:window-maximized="1"
   inkscape:current-layer="Layer_1" />
<g
   id="g6"
   style="fill:#ffffff">
	<path
   style="fill:#ffffff"
   d="M55.182,24.972c-1.219-1.218-3.191-1.217-4.408,0L39.335,36.411L27.9,24.972   c-1.218-1.217-3.19-1.218-4.408,0c-1.217,1.217-1.217,3.19,0,4.408l11.436,11.439L23.492,52.253c-1.217,1.218-1.217,3.19,0,4.408   c0.608,0.608,1.406,0.912,2.204,0.912c0.797,0,1.595-0.304,2.204-0.912l11.435-11.435l11.431,11.434   c0.608,0.609,1.406,0.913,2.204,0.913s1.595-0.304,2.203-0.912c1.218-1.217,1.218-3.19,0.001-4.407L43.742,40.819l11.44-11.44   C56.399,28.163,56.399,26.189,55.182,24.972z"
   id="path2" />
	<path
   style="fill:#ffffff"
   d="M39.34,0C17.648,0,0,17.648,0,39.34C0,61.027,17.648,78.67,39.34,78.67   c21.685,0,39.327-17.644,39.327-39.331C78.667,17.648,61.025,0,39.34,0z M39.34,72.438c-18.255,0-33.106-14.848-33.106-33.098   c0-18.255,14.852-33.106,33.106-33.106c18.249,0,33.094,14.852,33.094,33.106C72.434,57.59,57.588,72.438,39.34,72.438z"
   id="path4" />
</g>
</svg>
